<svg width="184" height="46" viewBox="0 0 184 46" fill="none" xmlns="http://www.w3.org/2000/svg">
<rect width="184" height="46" fill="#00AFDB"/>
<path d="M56.0498 26.7422C55.6807 27.1842 55.1589 27.5283 54.4844 27.7744C53.8099 28.016 53.0625 28.1367 52.2422 28.1367C51.3809 28.1367 50.6243 27.9499 49.9727 27.5762C49.3255 27.1979 48.8242 26.651 48.4688 25.9355C48.1178 25.2201 47.9378 24.3792 47.9287 23.4131V22.7363C47.9287 21.7428 48.0951 20.8838 48.4277 20.1592C48.765 19.43 49.248 18.874 49.877 18.4912C50.5104 18.1038 51.251 17.9102 52.0986 17.9102C53.279 17.9102 54.2018 18.1927 54.8672 18.7578C55.5326 19.3184 55.9268 20.1364 56.0498 21.2119H54.0537C53.9626 20.6423 53.7598 20.2253 53.4453 19.9609C53.1354 19.6966 52.707 19.5645 52.1602 19.5645C51.4629 19.5645 50.932 19.8265 50.5674 20.3506C50.2028 20.8747 50.0182 21.654 50.0137 22.6885V23.3242C50.0137 24.3678 50.2119 25.1562 50.6084 25.6895C51.0049 26.2227 51.5859 26.4893 52.3516 26.4893C53.1217 26.4893 53.6709 26.3252 53.999 25.9971V24.2812H52.1328V22.7705H56.0498V26.7422ZM63.7061 23.6865H59.7686V26.3525H64.3896V28H57.7178V18.0469H64.376V19.708H59.7686V22.0801H63.7061V23.6865ZM73.2217 19.708H70.1729V28H68.1221V19.708H65.1143V18.0469H73.2217V19.708ZM82.6348 25.3887C82.6348 25.0013 82.498 24.7051 82.2246 24.5C81.9512 24.2904 81.459 24.0716 80.748 23.8438C80.0371 23.6113 79.4743 23.3835 79.0596 23.1602C77.9294 22.5495 77.3643 21.7269 77.3643 20.6924C77.3643 20.1546 77.5146 19.6761 77.8154 19.2568C78.1208 18.833 78.556 18.5026 79.1211 18.2656C79.6908 18.0286 80.3288 17.9102 81.0352 17.9102C81.7461 17.9102 82.3796 18.04 82.9355 18.2998C83.4915 18.555 83.9222 18.9173 84.2275 19.3867C84.5374 19.8561 84.6924 20.3893 84.6924 20.9863H82.6416C82.6416 20.5306 82.498 20.1774 82.2109 19.9268C81.9238 19.6715 81.5205 19.5439 81.001 19.5439C80.4997 19.5439 80.11 19.651 79.832 19.8652C79.554 20.0749 79.415 20.3529 79.415 20.6992C79.415 21.0228 79.5768 21.2939 79.9004 21.5127C80.2285 21.7314 80.7093 21.9365 81.3428 22.1279C82.5094 22.4788 83.3594 22.9141 83.8926 23.4336C84.4258 23.9531 84.6924 24.6003 84.6924 25.375C84.6924 26.2363 84.3665 26.9131 83.7148 27.4053C83.0632 27.8929 82.1859 28.1367 81.083 28.1367C80.3174 28.1367 79.6201 27.9977 78.9912 27.7197C78.3623 27.4372 77.8815 27.0521 77.5488 26.5645C77.2207 26.0768 77.0566 25.5117 77.0566 24.8691H79.1143C79.1143 25.9674 79.7705 26.5166 81.083 26.5166C81.5706 26.5166 81.9512 26.4186 82.2246 26.2227C82.498 26.0221 82.6348 25.7441 82.6348 25.3887ZM93.5791 19.708H90.5303V28H88.4795V19.708H85.4717V18.0469H93.5791V19.708ZM99.5537 25.9492H95.958L95.2744 28H93.0938L96.7988 18.0469H98.6992L102.425 28H100.244L99.5537 25.9492ZM96.5117 24.2881H99L97.749 20.5625L96.5117 24.2881ZM107.039 24.3564H105.405V28H103.354V18.0469H107.053C108.229 18.0469 109.135 18.3089 109.773 18.833C110.411 19.3571 110.73 20.0977 110.73 21.0547C110.73 21.7337 110.582 22.3011 110.286 22.7568C109.994 23.208 109.55 23.568 108.953 23.8369L111.106 27.9043V28H108.905L107.039 24.3564ZM105.405 22.6953H107.06C107.575 22.6953 107.973 22.5654 108.256 22.3057C108.538 22.0413 108.68 21.679 108.68 21.2188C108.68 20.7493 108.545 20.3802 108.276 20.1113C108.012 19.8424 107.604 19.708 107.053 19.708H105.405V22.6953ZM119.446 19.708H116.397V28H114.347V19.708H111.339V18.0469H119.446V19.708ZM126.61 23.6865H122.673V26.3525H127.294V28H120.622V18.0469H127.28V19.708H122.673V22.0801H126.61V23.6865ZM128.497 28V18.0469H131.56C132.435 18.0469 133.216 18.2451 133.904 18.6416C134.597 19.0335 135.137 19.5941 135.524 20.3232C135.912 21.0479 136.105 21.8727 136.105 22.7979V23.2559C136.105 24.181 135.914 25.0036 135.531 25.7236C135.153 26.4437 134.618 27.002 133.925 27.3984C133.232 27.7949 132.451 27.9954 131.58 28H128.497ZM130.548 19.708V26.3525H131.539C132.341 26.3525 132.954 26.0905 133.378 25.5664C133.802 25.0423 134.018 24.2926 134.027 23.3174V22.791C134.027 21.7793 133.818 21.0137 133.398 20.4941C132.979 19.9701 132.366 19.708 131.56 19.708H130.548Z" fill="white"/>
</svg>
